<?xml version="1.0" encoding="utf-8"?>
<!-- Generator: Adobe Illustrator 25.0.0, SVG Export Plug-In . SVG Version: 6.00 Build 0)  -->
<svg version="1.1" id="Layer_1" xmlns="http://www.w3.org/2000/svg" xmlns:xlink="http://www.w3.org/1999/xlink" x="0px" y="0px"
	 viewBox="0 0 546.4 136.9" style="enable-background:new 0 0 546.4 136.9;" xml:space="preserve">
<style type="text/css">
	.st0{fill:#00AC4F;stroke:#FFFFFF;stroke-width:4;stroke-miterlimit:10;}
	.st1{fill:#FF0000;stroke:#FFFFFF;stroke-width:4;stroke-miterlimit:10;}
</style>
<g id="Layer_2_1_">
	<g id="Layer_1-2">
		<path class="st0" d="M25.3,130.7c0,0.5-0.2,0.9-0.5,1.3c-0.4,0.4-0.9,0.8-1.5,0.9c-0.9,0.3-1.9,0.5-2.8,0.6
			c-1.5,0.2-3,0.2-4.5,0.2c-1.5,0-3-0.1-4.5-0.2c-1-0.1-1.9-0.3-2.9-0.6c-0.6-0.2-1.1-0.5-1.5-0.9c-0.3-0.4-0.5-0.8-0.5-1.3V44.2
			c0-0.5,0.2-0.9,0.5-1.3c0.4-0.4,1-0.8,1.6-0.9c0.9-0.3,1.9-0.5,2.9-0.6c1.5-0.2,3-0.2,4.5-0.2c1.5,0,3,0.1,4.5,0.2
			c1,0.1,1.9,0.3,2.8,0.6c0.6,0.2,1.1,0.5,1.5,0.9c0.3,0.4,0.5,0.8,0.5,1.3L25.3,130.7z"/>
		<path class="st0" d="M121.1,126.8c0,1-0.2,2-0.6,2.9c-0.4,0.8-0.9,1.5-1.5,2.1c-0.7,0.6-1.4,1-2.3,1.2c-0.9,0.3-1.8,0.4-2.7,0.4
			h-7.9c-1.4,0-2.9-0.1-4.3-0.5c-1.2-0.3-2.4-1-3.3-1.8c-1.1-1-2.1-2.2-2.9-3.5c-0.9-1.5-2-3.4-3.2-5.8L69.6,79
			c-1.3-2.6-2.7-5.3-4-8.3c-1.3-2.9-2.6-5.8-3.7-8.6h-0.1c0.2,3.4,0.3,6.8,0.4,10.2c0.1,3.4,0.1,6.9,0.1,10.4v47.9
			c0,0.5-0.1,0.9-0.4,1.3c-0.3,0.5-0.8,0.8-1.3,1c-0.8,0.3-1.7,0.5-2.6,0.6c-1.4,0.2-2.8,0.2-4.2,0.2c-1.4,0-2.7-0.1-4.1-0.2
			c-0.9-0.1-1.7-0.3-2.5-0.6c-0.5-0.2-1-0.5-1.3-1c-0.2-0.4-0.4-0.8-0.3-1.3V48.3c-0.1-1.9,0.6-3.7,1.9-5c1.3-1.1,3-1.7,4.8-1.7h10
			c1.5,0,3,0.1,4.5,0.5c1.2,0.3,2.3,0.8,3.3,1.5c1.1,0.8,2,1.8,2.7,2.9c1,1.5,1.9,3,2.6,4.6l17.8,33.5c1,2,2.1,4,3.1,6
			s2,3.9,2.9,5.9l2.8,5.8c0.9,1.9,1.8,3.8,2.6,5.7h0.1c-0.1-3.3-0.2-6.8-0.3-10.3c-0.1-3.6-0.1-7-0.1-10.3v-43
			c0-0.5,0.1-0.9,0.4-1.3c0.4-0.5,0.9-0.8,1.4-1c0.8-0.3,1.7-0.5,2.6-0.6c1.1-0.1,2.5-0.2,4.2-0.2s3,0.1,4,0.2
			c0.9,0.1,1.7,0.3,2.5,0.6c0.5,0.2,0.9,0.6,1.2,1c0.2,0.4,0.4,0.8,0.3,1.3L121.1,126.8z"/>
		<path class="st0" d="M192.5,49.3c0,1.2,0,2.4-0.2,3.6c-0.1,0.8-0.3,1.6-0.6,2.3c-0.2,0.5-0.5,0.9-0.9,1.3
			c-0.3,0.3-0.7,0.4-1.1,0.4h-30v24.6h28.1c0.4,0,0.8,0.1,1.1,0.4c0.4,0.3,0.7,0.7,0.9,1.2c0.3,0.7,0.5,1.5,0.6,2.3
			c0.2,2.4,0.2,4.7,0,7.1c-0.1,0.8-0.3,1.6-0.6,2.3c-0.2,0.5-0.5,1-0.9,1.3c-0.3,0.3-0.7,0.4-1.1,0.4h-28.1v34.1
			c0,0.5-0.1,1-0.4,1.3c-0.4,0.5-0.9,0.8-1.5,1c-0.9,0.3-1.9,0.5-2.9,0.6c-3,0.3-6,0.3-9,0c-1-0.1-1.9-0.3-2.9-0.6
			c-0.6-0.2-1.1-0.5-1.5-1c-0.3-0.4-0.5-0.9-0.5-1.3V47.5c0-2.1,0.5-3.6,1.6-4.5c1.1-0.9,2.5-1.4,3.9-1.4h43.1
			c0.4,0,0.8,0.1,1.1,0.4c0.4,0.3,0.7,0.8,0.9,1.3c0.3,0.8,0.5,1.6,0.6,2.4C192.4,46.9,192.5,48.1,192.5,49.3z"/>
		<path class="st0" d="M289,86.4c0.1,6.9-0.9,13.8-2.8,20.4c-1.7,5.6-4.6,10.8-8.4,15.3c-3.8,4.2-8.5,7.5-13.8,9.6
			c-6.1,2.3-12.6,3.4-19.1,3.3c-6.3,0.1-12.6-0.8-18.6-2.8c-5.1-1.7-9.6-4.6-13.3-8.5c-3.8-4.2-6.5-9.2-8-14.6
			c-1.9-6.8-2.8-13.9-2.7-21c-0.1-6.8,0.9-13.5,2.8-20c1.7-5.6,4.6-10.7,8.4-15.1c3.8-4.2,8.6-7.5,13.8-9.6
			c6.1-2.3,12.6-3.4,19.2-3.3c6.2-0.1,12.4,0.8,18.4,2.8c5.1,1.7,9.6,4.6,13.3,8.5c3.8,4.2,6.5,9.1,8.1,14.5
			C288.2,72.5,289.1,79.4,289,86.4z M269.5,87.4c0-4.4-0.3-8.8-1.1-13.1c-0.6-3.6-1.9-7-3.9-10.1c-1.8-2.8-4.3-5-7.3-6.5
			c-3.5-1.6-7.4-2.4-11.3-2.3c-4-0.1-7.9,0.7-11.5,2.6c-3,1.7-5.5,4-7.4,6.9c-2,3.1-3.3,6.5-4,10.1c-0.8,4-1.2,8.1-1.2,12.2
			c0,4.5,0.3,9,1.1,13.5c0.6,3.6,1.9,7.1,3.8,10.2c1.7,2.8,4.2,5,7.2,6.5c3.6,1.6,7.5,2.4,11.4,2.2c4,0.1,7.9-0.7,11.4-2.5
			c3-1.7,5.6-4,7.4-6.9c2-3.1,3.3-6.6,4-10.2C269.1,95.7,269.5,91.6,269.5,87.4L269.5,87.4z"/>
		<path class="st0" d="M367.4,69.5c0.1,4.7-0.7,9.3-2.4,13.7c-1.5,3.8-3.9,7.3-7,10c-3.3,2.8-7.1,4.9-11.3,6.2
			c-5.1,1.5-10.4,2.2-15.8,2.1h-7.6v29.2c0,0.5-0.2,0.9-0.5,1.3c-0.4,0.4-0.9,0.8-1.5,0.9c-0.9,0.3-1.9,0.5-2.8,0.6
			c-3,0.3-6,0.3-9,0c-1-0.1-1.9-0.3-2.9-0.6c-0.6-0.1-1.1-0.4-1.6-0.9c-0.3-0.4-0.4-0.8-0.4-1.3V48.3c-0.1-1.8,0.5-3.6,1.7-5
			c1.2-1.1,2.9-1.7,4.6-1.7h21.6c2.2,0,4.2,0.1,6.2,0.3c2.4,0.2,4.7,0.6,7,1.1c2.9,0.6,5.7,1.6,8.3,3c2.7,1.4,5.2,3.3,7.2,5.6
			c2,2.3,3.6,5,4.5,7.9C366.8,62.6,367.4,66,367.4,69.5z M347.9,70.8c0.1-2.7-0.5-5.5-1.7-7.9c-1-1.9-2.4-3.5-4.2-4.6
			c-1.6-1-3.4-1.6-5.2-1.9c-1.9-0.3-3.7-0.4-5.6-0.4h-7.9v31.1h8.4c2.5,0.1,5.1-0.3,7.5-1.2c1.9-0.7,3.6-1.9,4.9-3.4
			c1.3-1.5,2.3-3.3,2.9-5.2C347.6,75.3,347.9,73,347.9,70.8z"/>
		<path class="st0" d="M449.8,130.9c0,0.5-0.1,0.9-0.3,1.3c-0.3,0.4-0.8,0.8-1.4,0.9c-1,0.3-2.1,0.5-3.1,0.5
			c-1.4,0.1-3.2,0.1-5.6,0.1c-2,0-3.6-0.1-4.7-0.1c-1-0.1-1.9-0.2-2.8-0.5c-0.6-0.2-1.1-0.5-1.5-1c-0.3-0.4-0.5-0.9-0.7-1.4
			l-8.2-20.5c-1-2.3-2-4.4-2.9-6.2c-0.8-1.6-1.9-3.2-3.1-4.5c-1.1-1.2-2.5-2.1-4-2.7c-1.7-0.6-3.5-1-5.2-0.9h-5.8v34.9
			c0,0.5-0.1,0.9-0.4,1.3c-0.4,0.4-0.9,0.8-1.5,0.9c-0.9,0.3-1.9,0.5-2.8,0.6c-3,0.3-6,0.3-9,0c-1-0.1-1.9-0.3-2.9-0.6
			c-0.6-0.1-1.1-0.5-1.5-0.9c-0.3-0.4-0.4-0.8-0.4-1.3V47.5c0-2.1,0.5-3.6,1.6-4.5c1.1-0.9,2.5-1.4,3.9-1.4H411c2.4,0,4.4,0,6,0.1
			c1.6,0.1,3,0.2,4.3,0.4c3.4,0.4,6.8,1.4,9.9,2.7c2.8,1.2,5.4,2.9,7.5,5c2.1,2.1,3.7,4.6,4.7,7.3c1.1,3.1,1.7,6.4,1.6,9.7
			c0,2.8-0.4,5.7-1.2,8.4c-0.7,2.4-1.9,4.7-3.4,6.8c-1.6,2-3.4,3.8-5.6,5.2c-2.3,1.5-4.9,2.7-7.6,3.5c1.4,0.7,2.7,1.5,3.9,2.4
			c1.3,1,2.4,2.2,3.4,3.4c1.1,1.4,2.1,3,3,4.6c1,1.9,1.9,3.8,2.8,5.8L448,125c0.7,1.8,1.2,3.1,1.4,3.9
			C449.6,129.6,449.7,130.2,449.8,130.9z M425.8,68.7c0.1-2.7-0.6-5.4-2.1-7.7c-1.6-2.2-4-3.8-6.7-4.4c-1.1-0.3-2.1-0.4-3.2-0.6
			c-1.7-0.2-3.3-0.2-5-0.2h-8.4v26h9.5c2.4,0,4.7-0.3,6.9-1c1.8-0.5,3.5-1.5,5-2.7c1.3-1.1,2.3-2.5,3-4.1
			C425.5,72.3,425.8,70.5,425.8,68.7z"/>
		<path class="st0" d="M544.4,86.4c0.1,6.9-0.9,13.8-2.8,20.4c-1.7,5.6-4.6,10.8-8.4,15.3c-3.8,4.2-8.5,7.5-13.8,9.6
			c-6.1,2.3-12.6,3.4-19.1,3.3c-6.3,0.1-12.6-0.8-18.7-2.8c-5.1-1.7-9.6-4.6-13.3-8.5c-3.8-4.2-6.5-9.2-8-14.6
			c-1.9-6.8-2.8-13.9-2.6-21c-0.1-6.8,0.9-13.5,2.8-20c1.7-5.6,4.6-10.7,8.5-15.1c3.8-4.2,8.5-7.5,13.8-9.6
			c6.1-2.3,12.6-3.5,19.1-3.3c6.2-0.1,12.4,0.8,18.4,2.8c5.1,1.7,9.6,4.6,13.3,8.5c3.8,4.2,6.5,9.1,8.1,14.5
			C543.6,72.5,544.6,79.4,544.4,86.4z M524.9,87.4c0-4.4-0.3-8.8-1.1-13.1c-0.6-3.6-1.9-7-3.9-10.1c-1.8-2.8-4.3-5-7.3-6.5
			c-3.5-1.6-7.4-2.4-11.3-2.3c-4-0.1-7.9,0.7-11.5,2.6c-3,1.7-5.6,4-7.4,6.9c-2,3.1-3.3,6.5-4,10.1c-0.8,4-1.2,8.1-1.2,12.2
			c0,4.5,0.3,9,1.1,13.5c0.6,3.6,1.9,7.1,3.8,10.2c1.8,2.8,4.3,5,7.2,6.5c3.6,1.6,7.5,2.4,11.4,2.2c4,0.1,7.9-0.7,11.5-2.5
			c3-1.7,5.6-4,7.4-6.9c2-3.1,3.3-6.6,4-10.2C524.5,95.7,524.9,91.6,524.9,87.4L524.9,87.4z"/>
		<circle class="st1" cx="15.9" cy="15.9" r="13.9"/>
	</g>
</g>
</svg>
